<?xml version="1.0" ?><svg height="430" id="svg8" version="1.1" viewBox="0 0 113.77083 113.77083" width="430" xmlns="http://www.w3.org/2000/svg" xmlns:cc="http://creativecommons.org/ns#" xmlns:dc="http://purl.org/dc/elements/1.1/" xmlns:inkscape="http://www.inkscape.org/namespaces/inkscape" xmlns:rdf="http://www.w3.org/1999/02/22-rdf-syntax-ns#" xmlns:sodipodi="http://sodipodi.sourceforge.net/DTD/sodipodi-0.dtd" xmlns:svg="http://www.w3.org/2000/svg" xmlns:xlink="http://www.w3.org/1999/xlink"><defs id="defs2"><linearGradient id="linearGradient4610"><stop id="stop4606" offset="0" style="stop-color:#afe9dd;stop-opacity:1;"/><stop id="stop4608" offset="1" style="stop-color:#c8f0e8;stop-opacity:1"/></linearGradient><linearGradient id="linearGradient4602"><stop id="stop4598" offset="0" style="stop-color:#ffeda5;stop-opacity:1"/><stop id="stop4600" offset="1" style="stop-color:#ffe680;stop-opacity:1"/></linearGradient><linearGradient id="linearGradient4594"><stop id="stop4590" offset="0" style="stop-color:#fbcaa9;stop-opacity:1"/><stop id="stop4592" offset="1" style="stop-color:#fff;stop-opacity:1"/></linearGradient><linearGradient gradientUnits="userSpaceOnUse" id="linearGradient4649" x1="0.60742188" x2="83.857422" xlink:href="#linearGradient4594" y1="802.82617" y2="1026.5762"/><linearGradient gradientUnits="userSpaceOnUse" id="linearGradient4886" x1="350.87057" x2="190.0551" xlink:href="#linearGradient4602" y1="252.42262" y2="183.80746"/><linearGradient gradientTransform="translate(-656.66389,-188.52903)" gradientUnits="userSpaceOnUse" id="linearGradient5434" x1="694.0824" x2="712.64075" xlink:href="#linearGradient4610" y1="211.78633" y2="222.06654"/><linearGradient gradientTransform="translate(-656.66389,-188.52903)" gradientUnits="userSpaceOnUse" id="linearGradient5442" x1="713.96326" x2="733.09576" xlink:href="#linearGradient4594" y1="223.3652" y2="211.78633"/><linearGradient gradientTransform="translate(-657.63396,-188.52903)" gradientUnits="userSpaceOnUse" id="linearGradient5450" x1="713.96326" x2="714.97296" xlink:href="#linearGradient4602" y1="223.3652" y2="265.39816"/><linearGradient gradientTransform="translate(-656.66389,-188.52903)" gradientUnits="userSpaceOnUse" id="linearGradient5458" x1="686.38702" x2="692.26099" xlink:href="#linearGradient4610" y1="266.27158" y2="224.23865"/><linearGradient gradientTransform="translate(-656.66389,-188.52903)" gradientUnits="userSpaceOnUse" id="linearGradient5466" x1="741.53955" x2="736.83752" xlink:href="#linearGradient4594" y1="266.27158" y2="222.74194"/></defs><g id="g4604"><path d="m 57.25996,11.1115 c -0.01258,8.2e-4 -0.02515,0.0018 -0.0377,0.003 -0.01619,0.001 -0.03236,0.0024 -0.0485,0.004 -0.03009,0.0029 -0.06008,0.0069 -0.0899,0.0119 -0.0121,0.0022 -0.02417,0.0045 -0.0362,0.007 -0.02948,0.0055 -0.05876,0.01207 -0.0878,0.0196 -0.01579,0.0043 -0.03149,0.009 -0.0471,0.0139 -0.02576,0.0078 -0.05127,0.01642 -0.0765,0.0258 -0.01632,0.006 -0.03253,0.01241 -0.0486,0.0191 -0.02676,0.0112 -0.05314,0.02327 -0.0791,0.0362 -0.0099,0.0049 -0.01966,0.0099 -0.0294,0.015 -0.01355,0.0067 -0.02699,0.01357 -0.0403,0.0207 l -40.088,23.14484 c -0.405969,0.235168 -0.657046,0.667735 -0.65989,1.13689 -10e-6,0.003 -10e-6,0.006 0,0.009 v 46.2871 c -1.3e-5,0.0034 -1.3e-5,0.0069 0,0.0103 4.56e-4,0.03692 0.0025,0.07381 0.006,0.11057 9.4e-4,0.0072 0.0019,0.01447 0.003,0.0217 0.0039,0.03656 0.0094,0.07294 0.0164,0.10904 0.0013,0.0071 0.0026,0.01414 0.004,0.0212 0.0082,0.03919 0.01825,0.07799 0.03,0.11628 -2e-6,0.0013 -2e-6,0.0027 0,0.004 0.09812,0.317795 0.312326,0.58698 0.59997,0.75396 l 40.088,23.14276 c 0.0077,0.004 0.01549,0.008 0.0233,0.0119 0.02308,0.0124 0.04652,0.0242 0.0703,0.0352 0.01385,0.007 0.02782,0.0129 0.0419,0.019 0.03106,0.0133 0.06262,0.0254 0.0946,0.0362 0.0065,0.002 0.01305,0.005 0.0196,0.007 0.06428,0.0214 0.130107,0.0378 0.1969,0.0491 0.01032,0.001 0.02065,0.003 0.031,0.004 0.03259,0.005 0.06534,0.008 0.0982,0.0109 0.01223,1.7e-4 0.02447,1.7e-4 0.0367,0 0.03272,0.001 0.06548,0.001 0.0982,0 0.0097,-8.9e-4 0.01935,-0.002 0.029,-0.003 0.033,-0.002 0.06592,-0.005 0.0987,-0.009 0.01884,-0.003 0.03761,-0.006 0.0563,-0.01 0.02251,-0.004 0.04492,-0.008 0.0672,-0.013 0.02327,-0.006 0.04638,-0.012 0.0693,-0.019 0.02011,-0.006 0.04008,-0.0115 0.0599,-0.018 0.02386,-0.008 0.04747,-0.0176 0.0708,-0.0274 0.01579,-0.006 0.03146,-0.0128 0.047,-0.0196 0.03879,-0.0171 0.07673,-0.0361 0.11369,-0.0569 L 98.04687,83.00998 c 0.01465,-0.009 0.02912,-0.01832 0.0434,-0.0279 0.0122,-0.0077 0.02426,-0.01567 0.0362,-0.0238 0.02452,-0.01676 0.04847,-0.03433 0.0718,-0.0527 0.01151,-0.0088 0.02288,-0.01775 0.0341,-0.0269 0.02125,-0.01794 0.04192,-0.03655 0.062,-0.0558 0.01298,-0.01214 0.02572,-0.02455 0.0382,-0.0372 0.01796,-0.01862 0.03536,-0.03776 0.0522,-0.0574 0.01199,-0.01372 0.02369,-0.02769 0.0351,-0.0419 0.01499,-0.0189 0.02946,-0.03821 0.0434,-0.0579 0.01268,-0.01779 0.02492,-0.0359 0.0367,-0.0543 0.01091,-0.01732 0.02141,-0.03489 0.0315,-0.0527 0.01252,-0.02169 0.02443,-0.04373 0.0357,-0.0661 0.0077,-0.01535 0.0151,-0.03086 0.0222,-0.0465 0.01129,-0.025 0.02179,-0.05035 0.0315,-0.076 0.0062,-0.01625 0.01199,-0.03262 0.0175,-0.0491 0.0083,-0.02441 0.01592,-0.04905 0.0228,-0.0739 0.0045,-0.01715 0.0086,-0.03439 0.0124,-0.0517 0.0063,-0.02738 0.01181,-0.05497 0.0164,-0.0827 0.0022,-0.01307 0.0042,-0.02617 0.006,-0.0393 0.005,-0.03653 0.0084,-0.07325 0.0103,-0.11007 2e-6,-0.0013 2e-6,-0.0027 0,-0.004 0.0014,-0.01978 0.0024,-0.03958 0.003,-0.0594 V 35.57815 c 6e-6,-0.0023 6e-6,-0.0047 0,-0.007 -5.03e-4,-0.02707 -0.0018,-0.05411 -0.004,-0.0811 -6.96e-4,-0.01638 -0.0017,-0.03275 -0.003,-0.0491 -0.0035,-0.02994 -0.008,-0.05976 -0.0135,-0.0894 -0.0018,-0.01346 -0.0038,-0.0269 -0.006,-0.0403 -0.0069,-0.03216 -0.01502,-0.06405 -0.0243,-0.0956 -0.0029,-0.01054 -0.0059,-0.02104 -0.009,-0.0315 -0.01266,-0.041 -0.02731,-0.08135 -0.0439,-0.12092 -9.98e-4,-0.001 -0.002,-0.002 -0.003,-0.003 -0.10985,-0.25824 -0.298963,-0.474865 -0.54001,-0.61857 -0.0053,-0.003 -0.01071,-0.006 -0.0161,-0.009 L 57.96052,11.28782 c -0.01263,-0.0067 -0.02536,-0.01327 -0.0382,-0.0196 -0.01535,-0.0081 -0.03085,-0.01584 -0.0465,-0.0233 -0.02345,-0.01137 -0.04722,-0.02204 -0.0713,-0.032 -0.01693,-0.0069 -0.034,-0.01342 -0.0512,-0.0196 -0.02305,-0.0084 -0.04632,-0.01618 -0.0698,-0.0233 -0.0195,-0.006 -0.03914,-0.01145 -0.0589,-0.0165 -0.02227,-0.0056 -0.04467,-0.01058 -0.0672,-0.015 -0.02348,-0.0048 -0.04709,-0.0089 -0.0708,-0.0124 -0.01666,-0.0023 -0.03336,-0.0043 -0.0501,-0.006 -0.02733,-0.0029 -0.05474,-0.0049 -0.0822,-0.006 -0.0083,-7.45e-4 -0.01659,-0.0014 -0.0249,-0.002 -0.0096,2.28e-4 -0.01927,5.61e-4 -0.0289,10e-4 -0.01379,-5.49e-4 -0.0276,-8.83e-4 -0.0414,-10e-4 z m -1.28312,3.61528 v 18.81074 l -33.66201,0.62115 z m 2.64636,0 33.66201,19.43189 -33.66201,-0.62115 z m 1.12757,21.47724 12.69484,0.23513 23.17687,0.43046 -6.07251,20.46749 -5.12214,17.26251 z m -4.9041,5.3e-4 L 30.17171,74.59652 22.34943,48.23947 18.97549,36.86963 39.44141,36.4898 Z m 2.45258,1.079 25.15299,39.13663 h -50.3065 l 13.81,-21.48758 z m 38.76352,7.40652 V 80.03779 L 86.50986,76.88914 Z M 32.94155,79.06523 h 48.71487 l -22.46738,22.21518 -1.88979,1.86862 z m 52.29034,0.18759 5.20899,1.7167 3.72536,1.22835 -28.63236,16.52974 z" id="path5387" style="color:#000000;font-style:normal;font-variant:normal;font-weight:normal;font-stretch:normal;font-size:medium;line-height:normal;font-family:sans-serif;font-variant-ligatures:normal;font-variant-position:normal;font-variant-caps:normal;font-variant-numeric:normal;font-variant-alternates:normal;font-feature-settings:normal;text-indent:0;text-align:start;text-decoration:none;text-decoration-line:none;text-decoration-style:solid;text-decoration-color:#000000;letter-spacing:normal;word-spacing:normal;text-transform:none;writing-mode:lr-tb;direction:ltr;text-orientation:mixed;dominant-baseline:auto;baseline-shift:baseline;text-anchor:start;white-space:normal;shape-padding:0;clip-rule:nonzero;display:inline;overflow:visible;visibility:visible;opacity:1;isolation:auto;mix-blend-mode:normal;color-interpolation:sRGB;color-interpolation-filters:linearRGB;solid-color:#000000;solid-opacity:1;vector-effect:none;fill:#fff;fill-opacity:1;fill-rule:nonzero;stroke:none;stroke-width:2.64600015;stroke-linecap:round;stroke-linejoin:round;stroke-miterlimit:10;stroke-dasharray:none;stroke-dashoffset:56.27999878;stroke-opacity:1;color-rendering:auto;image-rendering:auto;shape-rendering:auto;text-rendering:auto;enable-background:accumulate"/><g aria-label="20" id="text5484" style="font-style:normal;font-variant:normal;font-weight:normal;font-stretch:normal;font-size:16.93333244px;line-height:125%;font-family:'Facile Sans';-inkscape-font-specification:'Facile Sans';letter-spacing:0px;word-spacing:0px;fill:#fff;fill-opacity:1;stroke:none;stroke-width:0.26458332px;stroke-linecap:butt;stroke-linejoin:miter;stroke-opacity:1" transform="translate(-656.66389,-188.52903)"><path d="m 708.89397,244.007 q 0.84667,0 1.59174,0.32174 0.74506,0.32173 1.30386,0.88053 0.5588,0.5588 0.88054,1.3208 0.32173,0.74507 0.32173,1.59173 0,0.82974 -0.3048,1.55787 -0.28787,0.72813 -0.82973,1.27 -0.3048,0.32173 -0.67734,0.57573 -0.4572,0.3048 -0.99906,0.57574 -0.52494,0.27093 -0.99907,0.57573 -0.4572,0.3048 -0.762,0.69427 -0.3048,0.37253 -0.3048,0.9144 h 4.8768 v 2.55693 h -7.43373 v -2.55693 q 0,-0.94827 0.42333,-1.84574 0.254,-0.47413 0.57573,-0.84666 0.32174,-0.38947 0.7112,-0.69427 0.38947,-0.3048 0.8128,-0.5588 0.44027,-0.254 0.89747,-0.508 0.33867,-0.18627 0.6604,-0.3556 0.32173,-0.18627 0.54187,-0.508 0.254,-0.38947 0.254,-0.84667 0,-0.64346 -0.4572,-1.08373 -0.44027,-0.4572 -1.08374,-0.4572 -0.508,0 -0.89746,0.28787 -0.38947,0.28786 -0.5588,0.74506 l -1.8796,-1.89653 q 0.5588,-0.77893 1.4224,-1.23613 0.88053,-0.47414 1.91346,-0.47414 z" id="path5523" style="font-size:16.93333244px;fill:#fff;fill-opacity:1;stroke-width:0.26458332px"/><path d="m 718.25493,244.007 q 0.84667,0 1.59173,0.32174 0.762,0.32173 1.3208,0.88053 0.5588,0.5588 0.88054,1.3208 0.32173,0.74507 0.32173,1.59173 v 4.6228 q 0,0.84667 -0.32173,1.59174 -0.32174,0.74506 -0.88054,1.30386 -0.5588,0.5588 -1.3208,0.88053 -0.74506,0.32174 -1.59173,0.32174 -0.84667,0 -1.59173,-0.32174 -0.74507,-0.32173 -1.30387,-0.88053 -0.5588,-0.5588 -0.88053,-1.30386 -0.32174,-0.74507 -0.32174,-1.59174 v -4.6228 q 0,-0.84666 0.32174,-1.59173 0.32173,-0.762 0.88053,-1.3208 0.5588,-0.5588 1.30387,-0.88053 0.74506,-0.32174 1.59173,-0.32174 z m -1.54093,8.7376 q 0,0.64347 0.44026,1.10067 0.4572,0.44027 1.10067,0.44027 0.32173,0 0.59267,-0.11854 0.28786,-0.11853 0.49106,-0.32173 0.22014,-0.22013 0.33867,-0.49107 0.11853,-0.28786 0.11853,-0.6096 v -4.6228 q 0,-0.32173 -0.11853,-0.59266 -0.11853,-0.28787 -0.33867,-0.49107 -0.2032,-0.22013 -0.49106,-0.33867 -0.27094,-0.11853 -0.59267,-0.11853 -0.64347,0 -1.10067,0.4572 -0.44026,0.44027 -0.44026,1.08373 z" id="path5525" style="font-size:16.93333244px;fill:#fff;fill-opacity:1;stroke-width:0.26458332px"/></g><g aria-label="14" id="text5488" style="font-style:normal;font-variant:normal;font-weight:normal;font-stretch:normal;font-size:16.93333244px;line-height:125%;font-family:'Facile Sans';-inkscape-font-specification:'Facile Sans';letter-spacing:0px;word-spacing:0px;fill:#fff;fill-opacity:1;stroke:none;stroke-width:0.26458332px;stroke-linecap:butt;stroke-linejoin:miter;stroke-opacity:1" transform="rotate(180,-328.33195,-94.264515)"><path d="m -719.52798,-268.87781 v -10.2616 h -1.03293 l 1.03293,-2.57386 h 2.55693 v 12.83546 z" id="path5518" style="font-size:16.93333244px;fill:#fff;fill-opacity:1;stroke-width:0.26458332px"/><path d="m -710.95548,-268.87781 v -3.08186 h -4.84293 v -2.35374 l 4.80906,-7.39986 h 2.5908 v 7.19666 h 1.03294 v 2.55694 h -1.03294 v 3.08186 z m -1.64253,-5.6388 h 1.64253 v -2.54 z" id="path5520" style="font-size:16.93333244px;fill:#fff;fill-opacity:1;stroke-width:0.26458332px"/></g><g aria-label="8" id="text5492" style="font-style:normal;font-variant:normal;font-weight:normal;font-stretch:normal;font-size:16.93333244px;line-height:125%;font-family:'Facile Sans';-inkscape-font-specification:'Facile Sans';letter-spacing:0px;word-spacing:0px;fill:#fff;fill-opacity:1;stroke:none;stroke-width:0.26458332px;stroke-linecap:butt;stroke-linejoin:miter;stroke-opacity:1" transform="rotate(-45,-555.90662,698.39892)"><path d="m 323.84299,655.79146 q 0.57574,0.5588 0.9144,1.3208 0.33867,0.762 0.33867,1.64253 0,0.84667 -0.32173,1.59174 -0.32174,0.74506 -0.88054,1.30386 -0.5588,0.5588 -1.30386,0.88054 -0.74507,0.32173 -1.59174,0.32173 h -0.0169 q -0.84667,0 -1.59173,-0.32173 -0.74507,-0.32174 -1.30387,-0.88054 -0.5588,-0.5588 -0.88053,-1.30386 -0.32174,-0.74507 -0.32174,-1.59174 0,-0.88053 0.32174,-1.64253 0.33866,-0.762 0.93133,-1.3208 -0.33867,-0.44027 -0.54187,-0.99907 -0.2032,-0.5588 -0.2032,-1.1684 0,-0.74506 0.27094,-1.38853 0.28786,-0.6604 0.77893,-1.15146 0.49107,-0.49107 1.13453,-0.77894 0.6604,-0.28786 1.40547,-0.28786 0.74507,0 1.38853,0.28786 0.6604,0.28787 1.15147,0.77894 0.49107,0.49106 0.762,1.15146 0.28787,0.64347 0.28787,1.38853 0,0.6096 -0.2032,1.1684 -0.18627,0.5588 -0.52494,0.99907 z m -2.8448,4.50427 q 0.64347,-0.0169 1.08374,-0.4572 0.44026,-0.44027 0.44026,-1.08374 0,-0.64346 -0.44026,-1.08373 -0.44027,-0.4572 -1.08374,-0.4572 h -0.0169 q -0.64347,0 -1.10067,0.4572 -0.44026,0.44027 -0.44026,1.08373 0,0.64347 0.44026,1.08374 0.4572,0.44026 1.10067,0.4572 z m 0,-5.65574 q 0.42334,0 0.7112,-0.28786 0.3048,-0.3048 0.3048,-0.72814 0,-0.44026 -0.3048,-0.72813 -0.28786,-0.3048 -0.72813,-0.3048 -0.42333,0 -0.72813,0.3048 -0.28787,0.28787 -0.28787,0.72813 0,0.42334 0.28787,0.72814 0.3048,0.28786 0.72813,0.28786 z" id="path5538" style="font-size:16.93333244px;fill:#fff;fill-opacity:1;stroke-width:0.26458332px"/></g><g aria-label="2" id="text5496" style="font-style:normal;font-variant:normal;font-weight:normal;font-stretch:normal;font-size:16.93333244px;line-height:125%;font-family:'Facile Sans';-inkscape-font-specification:'Facile Sans';letter-spacing:0px;word-spacing:0px;fill:#fff;fill-opacity:1;stroke:none;stroke-width:0.26458332px;stroke-linecap:butt;stroke-linejoin:miter;stroke-opacity:1" transform="rotate(60,-165.06102,-662.95213)"><path d="m 574.69402,-525.01088 q 0.84667,0 1.59173,0.32173 0.74507,0.32174 1.30387,0.88054 0.5588,0.5588 0.88053,1.3208 0.32174,0.74506 0.32174,1.59173 0,0.82973 -0.3048,1.55787 -0.28787,0.72813 -0.82974,1.27 -0.3048,0.32173 -0.67733,0.57573 -0.4572,0.3048 -0.99907,0.57573 -0.52493,0.27094 -0.99906,0.57574 -0.4572,0.3048 -0.762,0.69426 -0.3048,0.37254 -0.3048,0.9144 h 4.8768 v 2.55693 h -7.43374 v -2.55693 q 0,-0.94826 0.42334,-1.84573 0.254,-0.47413 0.57573,-0.84667 0.32173,-0.38946 0.7112,-0.69426 0.38947,-0.3048 0.8128,-0.5588 0.44027,-0.254 0.89747,-0.508 0.33866,-0.18627 0.6604,-0.3556 0.32173,-0.18627 0.54186,-0.508 0.254,-0.38947 0.254,-0.84667 0,-0.64347 -0.4572,-1.08373 -0.44026,-0.4572 -1.08373,-0.4572 -0.508,0 -0.89747,0.28786 -0.38946,0.28787 -0.5588,0.74507 l -1.8796,-1.89653 q 0.5588,-0.77894 1.4224,-1.23614 0.88054,-0.47413 1.91347,-0.47413 z" id="path5541" style="font-size:16.93333244px;fill:#fff;fill-opacity:1;stroke-width:0.26458332px"/></g><g aria-label="10" id="text5500" style="font-style:normal;font-variant:normal;font-weight:normal;font-stretch:normal;font-size:12.78982925px;line-height:125%;font-family:'Facile Sans';-inkscape-font-specification:'Facile Sans';letter-spacing:0px;word-spacing:0px;fill:#fff;fill-opacity:1;stroke:none;stroke-width:0.26458332px;stroke-linecap:butt;stroke-linejoin:miter;stroke-opacity:1" transform="matrix(0.89790942,-0.06230228,-0.44018026,1.1442404,-656.66389,-188.52903)"><path d="m 895.70132,241.97517 v -7.75063 h -0.78018 l 0.78018,-1.94406 h 1.93127 v 9.69469 z" id="path5533" style="font-size:12.78982925px;fill:#fff;fill-opacity:1;stroke-width:0.26458332px"/><path d="m 901.61342,232.28048 q 0.63949,0 1.20224,0.24301 0.57555,0.24301 0.99761,0.66507 0.42207,0.42207 0.66507,0.99761 0.24301,0.56275 0.24301,1.20224 v 3.49163 q 0,0.63949 -0.24301,1.20224 -0.243,0.56275 -0.66507,0.98482 -0.42206,0.42206 -0.99761,0.66507 -0.56275,0.243 -1.20224,0.243 -0.63949,0 -1.20224,-0.243 -0.56276,-0.24301 -0.98482,-0.66507 -0.42206,-0.42207 -0.66507,-0.98482 -0.24301,-0.56275 -0.24301,-1.20224 v -3.49163 q 0,-0.63949 0.24301,-1.20224 0.24301,-0.57554 0.66507,-0.99761 0.42206,-0.42206 0.98482,-0.66507 0.56275,-0.24301 1.20224,-0.24301 z m -1.16387,6.59956 q 0,0.48601 0.33253,0.83133 0.34533,0.33254 0.83134,0.33254 0.24301,0 0.44764,-0.0895 0.21743,-0.0895 0.37091,-0.24301 0.16627,-0.16626 0.2558,-0.3709 0.0895,-0.21743 0.0895,-0.46043 v -3.49163 q 0,-0.243 -0.0895,-0.44764 -0.0895,-0.21743 -0.2558,-0.37091 -0.15348,-0.16626 -0.37091,-0.25579 -0.20463,-0.0895 -0.44764,-0.0895 -0.48601,0 -0.83134,0.34532 -0.33253,0.33254 -0.33253,0.81855 z" id="path5535" style="font-size:12.78982925px;fill:#fff;fill-opacity:1;stroke-width:0.26458332px"/></g><g aria-label="12" id="text5504" style="font-style:normal;font-variant:normal;font-weight:normal;font-stretch:normal;font-size:13.63858509px;line-height:125%;font-family:'Facile Sans';-inkscape-font-specification:'Facile Sans';letter-spacing:0px;word-spacing:0px;fill:#fff;fill-opacity:1;stroke:none;stroke-width:0.26458332px;stroke-linecap:butt;stroke-linejoin:miter;stroke-opacity:1" transform="matrix(0.99711495,0.03776061,0.41264707,1.0185203,-656.66389,-188.52903)"><path d="m 644.98491,192.16722 v -8.26498 h -0.83196 l 0.83196,-2.07307 h 2.05942 v 10.33805 z" id="path5528" style="font-size:13.63858509px;fill:#fff;fill-opacity:1;stroke-width:0.26458332px"/><path d="m 650.67561,181.82917 q 0.68193,0 1.28202,0.25914 0.6001,0.25913 1.05018,0.7092 0.45007,0.45008 0.7092,1.06381 0.25914,0.6001 0.25914,1.28203 0,0.66829 -0.2455,1.25475 -0.23186,0.58646 -0.66829,1.02289 -0.24549,0.25914 -0.54554,0.46372 -0.36825,0.24549 -0.80468,0.46371 -0.4228,0.21821 -0.80468,0.46371 -0.36824,0.24549 -0.61373,0.55918 -0.2455,0.30005 -0.2455,0.73648 h 3.92792 v 2.05943 h -5.98734 v -2.05943 q 0,-0.76376 0.34096,-1.4866 0.20458,-0.38188 0.46371,-0.68193 0.25914,-0.31369 0.57282,-0.55918 0.31369,-0.2455 0.65466,-0.45008 0.3546,-0.20457 0.72284,-0.40915 0.27277,-0.15003 0.53191,-0.28641 0.25913,-0.15003 0.43643,-0.40916 0.20458,-0.31369 0.20458,-0.68193 0,-0.51827 -0.36824,-0.87287 -0.35461,-0.36824 -0.87287,-0.36824 -0.40916,0 -0.72285,0.23185 -0.31368,0.23186 -0.45007,0.6001 l -1.51388,-1.52752 q 0.45007,-0.62737 1.14564,-0.99562 0.7092,-0.38188 1.54116,-0.38188 z" id="path5530" style="font-size:13.63858509px;fill:#fff;fill-opacity:1;stroke-width:0.26458332px"/></g></g></svg>