<svg width="182.101" height="71.4" viewBox="0 0 182.101 71.4" xmlns="http://www.w3.org/2000/svg"><g id="svgGroup" stroke-linecap="round" fill-rule="evenodd" font-size="9pt" stroke="#8A83C4" stroke-width="0.25mm" fill="#8A83C4" style="stroke:#8A83C4;stroke-width:0.25mm;fill:#8A83C4"><path d="M 95.8 37.5 L 95.8 36.5 A 22.638 22.638 0 0 0 99.601 37.011 Q 100.075 37.033 100.544 37.033 A 18.828 18.828 0 0 0 109.3 34.9 A 14.475 14.475 0 0 0 116.394 26.868 A 19.397 19.397 0 0 0 116.8 25.7 A 14.63 14.63 0 0 0 117.285 23.513 A 11.707 11.707 0 0 0 117.4 21.9 L 117.4 19.7 A 23.626 23.626 0 0 0 116.83 15.037 Q 115.942 11.209 113.7 8.55 A 11.426 11.426 0 0 0 106.433 4.585 A 16.71 16.71 0 0 0 103.9 4.4 L 92.4 4.4 L 92.4 64.1 Q 92.5 66.7 94.35 68.55 A 6.06 6.06 0 0 0 98.719 70.4 A 7.26 7.26 0 0 0 98.8 70.4 L 100.1 70.4 L 100.1 71.4 L 78.2 71.4 L 78.2 70.4 L 79.5 70.4 A 6.059 6.059 0 0 0 83.892 68.607 A 7.395 7.395 0 0 0 83.95 68.55 Q 85.8 66.7 85.9 64.1 L 85.9 8.2 Q 85.6 5.7 83.8 4.05 Q 82 2.4 79.5 2.4 L 78.3 2.4 L 78.2 1.4 L 104.3 1.4 A 28.945 28.945 0 0 1 110.416 2.009 Q 115.791 3.17 119.4 6.55 Q 124.9 11.7 124.9 20.7 Q 124.9 25.1 123.1 28.9 A 17.994 17.994 0 0 1 113.972 37.82 A 24.804 24.804 0 0 1 111.5 38.8 Q 109.413 39.52 107.74 39.721 A 10.373 10.373 0 0 1 106.5 39.8 Q 100.3 39.8 95.8 37.5 Z M 153 37.5 L 153 36.5 A 22.638 22.638 0 0 0 156.801 37.011 Q 157.275 37.033 157.744 37.033 A 18.828 18.828 0 0 0 166.5 34.9 A 14.475 14.475 0 0 0 173.594 26.868 A 19.397 19.397 0 0 0 174 25.7 A 14.63 14.63 0 0 0 174.485 23.513 A 11.707 11.707 0 0 0 174.6 21.9 L 174.6 19.7 A 23.626 23.626 0 0 0 174.03 15.037 Q 173.142 11.209 170.9 8.55 A 11.426 11.426 0 0 0 163.633 4.585 A 16.71 16.71 0 0 0 161.1 4.4 L 149.6 4.4 L 149.6 64.1 Q 149.7 66.7 151.55 68.55 A 6.06 6.06 0 0 0 155.919 70.4 A 7.26 7.26 0 0 0 156 70.4 L 157.3 70.4 L 157.3 71.4 L 135.4 71.4 L 135.4 70.4 L 136.7 70.4 A 6.059 6.059 0 0 0 141.092 68.607 A 7.395 7.395 0 0 0 141.15 68.55 Q 143 66.7 143.1 64.1 L 143.1 8.2 Q 142.8 5.7 141 4.05 Q 139.2 2.4 136.7 2.4 L 135.5 2.4 L 135.4 1.4 L 161.5 1.4 A 28.945 28.945 0 0 1 167.616 2.009 Q 172.991 3.17 176.6 6.55 Q 182.1 11.7 182.1 20.7 Q 182.1 25.1 180.3 28.9 A 17.994 17.994 0 0 1 171.172 37.82 A 24.804 24.804 0 0 1 168.7 38.8 Q 166.613 39.52 164.94 39.721 A 10.373 10.373 0 0 1 163.7 39.8 Q 157.5 39.8 153 37.5 Z M 72.5 70.4 L 73.3 70.4 L 73.3 71.4 L 50.8 71.4 L 50.8 70.4 L 51.7 70.4 A 5.173 5.173 0 0 0 52.958 70.256 A 3.351 3.351 0 0 0 54.85 69.05 A 6.395 6.395 0 0 0 55.42 68.19 Q 55.686 67.703 55.805 67.236 A 2.984 2.984 0 0 0 55.9 66.5 A 7.547 7.547 0 0 0 55.503 64.109 A 8.479 8.479 0 0 0 55.5 64.1 L 49.1 47.1 L 22.1 47.1 L 15.4 64.2 A 7.755 7.755 0 0 0 15.04 65.822 A 6.784 6.784 0 0 0 15 66.55 Q 15 67.432 15.618 68.432 A 7.028 7.028 0 0 0 16.05 69.05 A 3.374 3.374 0 0 0 18.046 70.281 A 5.277 5.277 0 0 0 19.2 70.4 L 20.1 70.4 L 20.1 71.4 L 0 71.4 L 0 70.4 L 0.9 70.4 A 8.199 8.199 0 0 0 4.442 69.573 A 10.732 10.732 0 0 0 5.8 68.8 A 10.383 10.383 0 0 0 8.448 66.214 A 13.967 13.967 0 0 0 9.7 64.1 L 32.3 10.3 A 138.172 138.172 0 0 0 33.557 7.47 Q 35.369 3.255 35.837 1.183 A 5.601 5.601 0 0 0 36 0 L 36.9 0 L 63.7 64.1 A 12.68 12.68 0 0 0 65.174 66.601 A 9.702 9.702 0 0 0 67.5 68.8 A 9.743 9.743 0 0 0 70.067 70.037 A 8.309 8.309 0 0 0 72.5 70.4 Z M 35.9 12 L 23.3 44.1 L 47.9 44.1 L 35.9 12 Z" vector-effect="non-scaling-stroke"/></g></svg>