<svg width="226.1" height="71.702" viewBox="0 0 226.1 71.702" xmlns="http://www.w3.org/2000/svg"><g id="svgGroup" stroke-linecap="round" fill-rule="evenodd" font-size="9pt" stroke="#453D80" stroke-width="0.25mm" fill="#453D80" style="stroke:#453D80;stroke-width:0.25mm;fill:#453D80"><path d="M 109.7 64.7 L 133.1 64.7 Q 135.92 64.7 137.902 64.033 A 7.937 7.937 0 0 0 139.75 63.15 A 10.6 10.6 0 0 0 141.263 61.913 Q 142.975 60.257 144.9 57.3 L 145.9 57.3 L 141.1 70.3 L 99.6 70.3 L 99.6 69.4 Q 133.7 41.4 133.7 26.2 A 19.866 19.866 0 0 0 133.245 21.817 Q 132.567 18.817 130.876 16.619 A 11.97 11.97 0 0 0 129.85 15.45 A 12.859 12.859 0 0 0 122.992 11.913 A 18.589 18.589 0 0 0 119.5 11.6 A 25.643 25.643 0 0 0 114.834 11.999 Q 110.656 12.773 107.85 15.05 Q 103.6 18.5 103.8 24.8 L 102.8 24.8 L 101.1 14.6 Q 103.277 12.657 106.873 11.257 A 33.025 33.025 0 0 1 109.05 10.5 A 35.365 35.365 0 0 1 116.013 9.057 A 30.873 30.873 0 0 1 119.1 8.9 A 36.113 36.113 0 0 1 125.559 9.444 Q 131.263 10.482 135.2 13.5 A 14.651 14.651 0 0 1 141.106 24.077 A 19.294 19.294 0 0 1 141.2 26 A 20.659 20.659 0 0 1 139.355 34.383 A 29.569 29.569 0 0 1 136.2 39.8 A 220.497 220.497 0 0 1 134.913 41.57 Q 134.404 42.263 133.938 42.883 A 114.675 114.675 0 0 1 133.05 44.05 A 25.98 25.98 0 0 1 132.089 45.217 Q 130.941 46.538 129.262 48.19 A 82.718 82.718 0 0 1 129.15 48.3 Q 127.198 50.214 125.919 51.454 A 338.023 338.023 0 0 1 125.2 52.15 A 36.788 36.788 0 0 1 124.406 52.891 Q 123.075 54.1 120.9 55.9 A 483.361 483.361 0 0 1 119.64 56.94 Q 118.187 58.134 117.353 58.795 A 46.873 46.873 0 0 1 116.9 59.15 A 3628.868 3628.868 0 0 1 116.265 59.641 Q 115.38 60.324 113.907 61.461 A 31558.281 31558.281 0 0 1 112.95 62.2 A 2895.369 2895.369 0 0 1 111.967 62.958 Q 110.025 64.457 109.7 64.7 Z M 1.1 15.3 L 0 14.9 A 24.072 24.072 0 0 1 2.656 9.373 A 17.032 17.032 0 0 1 9.7 3.2 A 23.343 23.343 0 0 1 14.053 1.726 Q 21.095 0 33.8 0 A 181.683 181.683 0 0 1 35.537 0.011 Q 40.138 0.057 52 0.3 Q 62.6 0.6 70.7 4.9 Q 78.8 9.2 83.35 17.05 A 33.64 33.64 0 0 1 87.539 29.643 A 43.082 43.082 0 0 1 87.9 35.3 A 40.26 40.26 0 0 1 86.32 46.851 A 31.434 31.434 0 0 1 77.95 60.65 Q 68 70.3 52 70.3 L 18.1 70.3 L 18.2 69.3 L 19.4 69.3 Q 21.9 69.3 23.7 67.65 Q 25.5 66 25.8 63.6 L 25.8 3.3 A 71.964 71.964 0 0 0 20.006 3.657 Q 12 4.5 8.1 7.2 A 28.75 28.75 0 0 0 6.327 8.547 Q 4.897 9.729 4 10.85 A 24.121 24.121 0 0 0 2.846 12.429 Q 1.991 13.697 1.1 15.3 Z M 52 3.3 L 32.3 3.3 L 32.3 67.3 L 52 67.3 A 29.763 29.763 0 0 0 61.852 65.734 A 25.346 25.346 0 0 0 72.55 58.5 A 30.114 30.114 0 0 0 79.472 44.539 A 43.663 43.663 0 0 0 80.4 35.3 A 43.156 43.156 0 0 0 79.54 26.494 A 33.516 33.516 0 0 0 76.85 18.55 A 27.64 27.64 0 0 0 70.781 10.285 A 25.962 25.962 0 0 0 66.85 7.3 A 26.711 26.711 0 0 0 55.081 3.441 A 33.144 33.144 0 0 0 52 3.3 Z M 161.95 17.55 Q 169.8 8.9 182.6 8.9 A 30.793 30.793 0 0 1 192.183 10.328 A 25.332 25.332 0 0 1 203.25 17.55 A 29.557 29.557 0 0 1 210.295 31.827 A 42.457 42.457 0 0 1 211.1 40.3 A 41.294 41.294 0 0 1 209.996 50.109 A 29.213 29.213 0 0 1 203.25 63.05 Q 195.4 71.7 182.6 71.7 A 30.793 30.793 0 0 1 173.017 70.273 A 25.332 25.332 0 0 1 161.95 63.05 A 29.557 29.557 0 0 1 154.905 48.774 A 42.457 42.457 0 0 1 154.1 40.3 A 41.294 41.294 0 0 1 155.204 30.492 A 29.213 29.213 0 0 1 161.95 17.55 Z M 198.2 19.7 A 19.867 19.867 0 0 0 192.08 14.237 Q 188.072 11.992 183.013 11.904 A 23.826 23.826 0 0 0 182.6 11.9 A 19.401 19.401 0 0 0 174.156 13.701 Q 170.321 15.526 167.387 19.202 A 24.254 24.254 0 0 0 167 19.7 Q 161.1 27.5 161.1 40.3 A 45.23 45.23 0 0 0 161.862 48.855 Q 162.836 53.907 165.053 57.905 A 25.293 25.293 0 0 0 167 60.9 A 19.867 19.867 0 0 0 173.12 66.363 Q 177.128 68.609 182.187 68.697 A 23.826 23.826 0 0 0 182.6 68.7 A 19.515 19.515 0 0 0 190.014 67.314 A 18.423 18.423 0 0 0 193.9 65.15 A 21.157 21.157 0 0 0 199.73 58.637 A 27.427 27.427 0 0 0 201.45 55.15 A 34.522 34.522 0 0 0 203.628 47.041 A 46.181 46.181 0 0 0 204.1 40.3 A 45.23 45.23 0 0 0 203.338 31.746 Q 202.364 26.693 200.147 22.695 A 25.293 25.293 0 0 0 198.2 19.7 Z M 224.8 69.4 Q 223.5 70.7 221.6 70.7 A 4.571 4.571 0 0 1 219.751 70.334 A 4.385 4.385 0 0 1 218.4 69.4 Q 217.1 68.1 217.1 66.2 A 4.571 4.571 0 0 1 217.467 64.352 A 4.385 4.385 0 0 1 218.4 63 Q 219.7 61.7 221.6 61.7 A 4.571 4.571 0 0 1 223.449 62.067 A 4.385 4.385 0 0 1 224.8 63 Q 226.1 64.3 226.1 66.2 A 4.571 4.571 0 0 1 225.733 68.049 A 4.385 4.385 0 0 1 224.8 69.4 Z" vector-effect="non-scaling-stroke"/></g></svg>